<svg xmlns="http://www.w3.org/2000/svg" width="256" height="256"><path fill-opacity=".016" d="M0 128.004v128.004l128.25-.254 128.25-.254.254-127.75L257.008 0H0v128.004m.485.496c0 70.4.119 99.053.265 63.672.146-35.38.146-92.98 0-128C.604 29.153.485 58.1.485 128.5" fill="#1976D2" fill-rule="evenodd"/><path fill-opacity=".319" d="M115.001 11.065C64.165 17.373 24.389 53.32 12.722 103.5c-1.655 7.121-2.126 12.705-2.255 26.75-.09 9.762.106 17.75.435 17.751.329 0 .659 2.138.734 4.75.172 6.012 4.412 20.32 8.9 30.033 10.148 21.965 28.986 42.296 49.781 53.726 3.675 2.02 7.695 5.017 8.933 6.658 4.626 6.137 6.774 7.646 12.053 8.466 7.36 1.143 146.329.488 150.893-.711 2.033-.534 4.596-2.115 5.695-3.512 1.884-2.394 2.004-4.126 2.077-29.953.062-21.718-.221-28.128-1.361-30.855-1.695-4.058-4.173-5.603-8.985-5.603h-3.51l1.933-4.369c3.02-6.826 7.183-23.588 6.517-26.24-.33-1.315-.21-2.391.267-2.391s.794-7.987.704-17.75c-.175-19.082-1.751-28.872-6.802-42.25-14.814-39.241-48.354-67.781-88.639-75.423-10.391-1.971-25.979-2.643-35.091-1.512m52.854 46.906c-6.145 1.858-15.153 7.661-20.351 13.11-9.8 10.275-14.392 24.366-11.579 35.537l1.197 4.751-38.061 38.07C78.127 170.378 61 187.974 61 188.542c0 .568 2.249 3.248 4.998 5.956l4.998 4.923 4.534-4.451c2.494-2.447 5.307-6.029 6.252-7.96.994-2.03 3.182-4.241 5.191-5.243 1.91-.954 11.365-9.616 21.01-19.25L125.521 145l17.979 18 17.979 18H183.484l-23.472-23.488-23.473-23.489 5.825-5.885 5.824-5.886 4.656 1.434c6.822 2.1 15.413.937 24.208-3.278 22.88-10.965 33.411-39.993 20.136-55.502-5.015-5.858-9.981-7.877-19.188-7.798-4.125.035-8.69.424-10.145.863M58.571 63.319c-5.595 7.335-7.201 19.482-3.857 29.181 1.464 4.247 4.622 7.936 20.975 24.5l19.251 19.5 11.035-10.988 11.035-10.988-27.248-27.262C74.775 72.268 62.196 60 61.808 60c-.389 0-1.845 1.493-3.237 3.319m62.828 133.478c-5.008.292-5.141.383-7.305 5-1.213 2.587-3.018 5.78-4.012 7.097l-1.808 2.394-3.887-7.138-3.887-7.137-5.309-.006c-2.92-.004-5.127.331-4.905.743.222.412 3.398 5.765 7.059 11.894 6.537 10.946 6.655 11.27 6.655 18.25V235h9V220.091l7.046-11.667c3.875-6.416 6.912-11.724 6.75-11.795-.163-.071-2.592.005-5.397.168m26.746.187l-5.355.516-6.874 18.5c-3.78 10.175-6.883 18.613-6.895 18.75-.011.137 2.04.25 4.559.25 4.423 0 4.636-.139 6.167-4.039l1.587-4.039 7.497.289 7.497.289 1.17 3.5c1.089 3.258 1.492 3.521 5.836 3.805 2.566.167 4.666.057 4.666-.245 0-1.092-13.306-37.073-13.895-37.576-.333-.284-3.015-.284-5.96 0m33.817 1.266c-6.146 3.099-9.213 8.791-9.209 17.091.007 12.287 5.631 18.77 16.906 19.488 3.531.225 8.427-.153 10.88-.84 4.41-1.235 4.461-1.299 4.461-5.619 0-2.403-.243-4.37-.54-4.37-.298 0-1.86.975-3.472 2.167-3.833 2.834-11.081 2.964-14.077.252-4.826-4.367-6.124-10.579-3.517-16.82 2.886-6.906 11.095-8.792 17.966-4.129l3.64 2.47v-4.812c0-4.719-.074-4.834-3.866-5.97-6.307-1.889-14.145-1.443-19.172 1.092M213 216v19h28v-7h-18v-31h-10v19m-66.908-3.806c-1.151 3.407-2.092 6.557-2.092 7 0 .443 2.025.806 4.5.806s4.5-.363 4.5-.806c0-1.131-4.114-13.194-4.5-13.194-.174 0-1.258 2.787-2.408 6.194" fill="#1976D2" fill-rule="evenodd"/><path fill-opacity=".391" d="M108.729 12.512c-42.41 7.13-78.072 37.566-91.709 78.27-18.311 54.652 5.354 113.694 56.77 141.637 4.768 2.591 7.21 4.519 7.21 5.694 0 .976 1.026 2.968 2.279 4.425 2.253 2.619 3.06 2.883 17.221 5.636 8.201 1.595 48.309 1.442 55.5-.211 3.687-.848 19.126-1.462 46.838-1.864l41.338-.599 2.412-2.806 2.412-2.806V213.5c0-26.194-.017-26.408-2.331-29.098-1.88-2.186-3.407-2.799-7.906-3.172l-5.575-.462 3.014-7.083c5.554-13.052 7.951-24.639 8.518-41.185.581-16.959-.772-26.766-5.757-41.723-9.675-29.032-31.56-54.014-59.726-68.177-19.569-9.841-47.885-13.892-70.508-10.088m57.82 45.541c-16.198 5.735-28.922 20.28-31.474 35.978-.84 5.171-.038 13.602 1.537 16.151.357.576-16.741 18.442-37.995 39.701l-38.644 38.653 5.797 5.736 5.797 5.737 4.63-4.755c2.546-2.615 5.314-6.425 6.151-8.468 1.091-2.666 2.315-3.903 4.336-4.383 1.824-.433 9.248-7.041 21.079-18.763l18.262-18.094 17.748 17.727L161.52 181h21.964l-23.254-23.27-23.254-23.269 5.776-5.715 5.775-5.715 3.987 1.101c11.971 3.306 27.701-2.262 38.251-13.54 16.986-18.158 17.291-41.442.671-51.182-6.442-3.776-16.507-4.324-24.887-1.357M58.665 62.195c-4.579 6.004-6.043 10.677-6.047 19.305-.005 12.342 1.52 14.742 23.498 36.98 10.316 10.439 18.898 18.749 19.071 18.467.172-.282 5.148-5.453 11.058-11.491l10.745-10.979-27.861-27.848-27.861-27.847-2.603 3.413m126.189 134.326c-14.977 4.768-17.553 28.28-3.974 36.263 3.857 2.267 5.777 2.712 11.62 2.69 4.718-.018 8.06-.597 10.25-1.776 2.922-1.573 3.25-2.201 3.25-6.224 0-2.461-.268-4.474-.596-4.474-.327 0-1.96.972-3.627 2.159-1.668 1.188-5.143 2.362-7.722 2.61-3.913.376-5.158.047-7.525-1.99-2.337-2.01-2.92-3.44-3.307-8.105-.571-6.88 1.034-11.239 4.868-13.221 4.058-2.098 7.851-1.786 12.409 1.021 2.2 1.355 4.338 2.478 4.75 2.495.412.017.75-2.017.75-4.52 0-4.212-.248-4.655-3.332-5.943-5.328-2.226-12.644-2.631-17.814-.985m-95.601.176c.24.442 3.431 5.818 7.092 11.947 6.647 11.13 6.655 11.154 6.655 18.75V235h11v-15.869l6.498-10.815c3.575-5.949 6.5-11.177 6.5-11.618.001-.442-2.36-.667-5.248-.5l-5.25.302-3.854 7.357-3.855 7.357-4.171-7.357-4.172-7.357-5.815-.303c-3.199-.166-5.62.059-5.38.5m53.225.553c-.253.688-3.388 9.124-6.969 18.747-3.58 9.624-6.509 17.836-6.509 18.25 0 .414 2.232.753 4.96.753 4.92 0 4.969-.032 6.158-4l1.199-4h14.366l1.199 4 1.198 4h10.891l-1.853-4.75c-1.019-2.613-4.275-11.386-7.236-19.496l-5.382-14.746-5.781-.004c-3.717-.002-5.946.442-6.241 1.246M213 215.5V235h28v-8h-18v-31h-10v19.5m-66.565-3.25c-.95 2.887-1.934 5.813-2.188 6.5-.328.888.902 1.25 4.253 1.25s4.581-.362 4.253-1.25c-.254-.687-1.238-3.613-2.188-6.5-.949-2.887-1.878-5.25-2.065-5.25-.187 0-1.116 2.363-2.065 5.25" fill="#1976D2" fill-rule="evenodd"/><path fill-opacity=".25" d="M202.129 71.5c3.835 8.395 1.49 22.209-5.577 32.856-9.967 15.016-28.812 23.98-42.881 20.397l-5.569-1.419-5.28 5.346-5.28 5.346 23.229 23.245C173.547 170.056 184 180.85 184 181.258c0 .408-5.067.742-11.26.742h-11.261L143.5 164l-17.98-18.001-18.01 17.826c-9.905 9.804-19.254 18.348-20.775 18.986-1.52.638-3.29 2.404-3.932 3.924-.642 1.521-3.414 5.109-6.16 7.974l-4.994 5.209 4.676 4.998L81 209.914l.006 12.293c.006 14.366 1.057 19.133 4.751 21.552 2.478 1.624 7.886 1.72 80.12 1.435 43.689-.173 78.202-.701 79.156-1.212 3.63-1.942 4.075-5.773 3.766-32.398-.298-25.704-.304-25.768-2.66-27.674-1.65-1.335-3.933-1.91-7.583-1.91-2.873 0-5.465-.243-5.762-.539-.297-.297.978-4.051 2.834-8.342 6.932-16.034 10.548-38.168 8.792-53.817l-.92-8.197-21.599-21.803c-17.178-17.339-21.226-20.983-19.772-17.802M184.5 196.161c-8.328 3.122-12.514 9.631-12.478 19.405.037 10.087 4.378 16.761 12.685 19.502 4.17 1.377 14.517.756 18.543-1.113 2.445-1.135 2.75-1.812 2.75-6.116 0-2.661-.183-4.839-.408-4.839-.224 0-2.679 1.179-5.456 2.619-6.016 3.122-10.513 2.738-14.226-1.215-2.028-2.159-2.41-3.579-2.41-8.962 0-5.658.32-6.717 2.773-9.169 3.517-3.517 9.906-3.706 14.506-.43 4.443 3.163 5.221 2.763 5.221-2.682 0-4.302-.306-4.983-2.75-6.125-3.713-1.735-15.045-2.264-18.75-.875m-95.5.417c0 .318 3.15 5.846 7 12.285 6.938 11.603 7 11.77 7 18.922V235h11v-7.606c0-7.596.008-7.62 6.655-18.75 3.661-6.129 6.837-11.482 7.059-11.894.222-.412-2.228-.75-5.445-.75h-5.848l-3.837 7.104c-2.795 5.174-4.08 6.736-4.732 5.75-.492-.745-2.297-3.942-4.012-7.104l-3.119-5.75h-5.86c-3.224 0-5.861.26-5.861.578m48.118 14.176c-2.961 8.11-6.226 16.906-7.256 19.546l-1.872 4.8 5.722-.3c5.505-.289 5.757-.423 6.649-3.55l.928-3.25h14.422l.928 3.25c.895 3.138 1.129 3.26 6.772 3.554 4.48.233 5.729-.001 5.351-1-.272-.717-3.538-9.517-7.258-19.554L154.739 196l-6.12.004-6.119.004-5.382 14.746M213 215.5V235h28v-8h-18v-31h-10v19.5m-66.843-1.5l-2.026 6h8.738l-2.026-6c-1.115-3.3-2.169-6-2.343-6-.174 0-1.228 2.7-2.343 6" fill="#1976D2" fill-rule="evenodd"/></svg>