<?xml version="1.0" encoding="UTF-8" standalone="no"?>
<svg
	xmlns="http://www.w3.org/2000/svg"
	id="svg52"
	height="48"
	width="48"
	version="1.1">
	<defs
		id="defs25">
		<linearGradient
			id="color-1"
			gradientUnits="userSpaceOnUse"
			y2="65.67148"
			x2="65.05488"
			y1="10.54052"
			x1="11.24839">
			<stop
				id="stop2"
				stop-opacity="0.22"
				stop-color="#000000"
				offset="0.51"/>
			<stop
				id="stop4"
				stop-opacity="0"
				stop-color="#000000"
				offset="1"/>
		</linearGradient>
		<filter
			id="dropshadow-base">
			<feColorMatrix
				id="feColorMatrix7"
				values="0 0 0 0 0  0 0 0 0 0  0 0 0 0 0  0 0 0 .8 0"
			/>
			<feOffset
				id="feOffset9"
				dy="1"
				dx="0"/>
			<feGaussianBlur
				result="result1"
				id="feGaussianBlur11"
				stdDeviation="1"/>
			<feComposite
				id="feComposite13"
				in2="result1"
				in="SourceGraphic"/>
		</filter>
		<filter
			height="130%"
			width="120%"
			y="-10%"
			x="-10%"
			id="dropshadow-banner">
			<feColorMatrix
				id="feColorMatrix16"
				values="0 0 0 0 0  0 0 0 0 0  0 0 0 0 0  0 0 0 .4 0"
			/>
			<feOffset
				id="feOffset18"
				dy="1"
				dx="0"/>
			<feGaussianBlur
				result="result1"
				id="feGaussianBlur20"
				stdDeviation="0.5"/>
			<feComposite
				id="feComposite22"
				in2="result1"
				in="SourceGraphic"/>
		</filter>
	</defs>
	<g
		id="g50"
		style="font-family:none;mix-blend-mode:normal;fill:none;fill-rule:nonzero;stroke:none;stroke-linecap:butt;stroke-linejoin:miter;stroke-miterlimit:10;stroke-dasharray:none;stroke-dashoffset:0"
		font-size="none"
		stroke-miterlimit="10"
		stroke-width="none">
		<path
			style="fill:#1976d2;stroke-width:1;filter:url(#dropshadow-banner)"
			id="base 1 5"
			d="M 2,24 C 2,11.84974 11.84974,2 24,2 36.15026,2 46,11.84974 46,24 46,36.15026 36.15026,46 24,46 11.84974,46 2,36.15026 2,24 Z"/>
		<path
			style="fill:url(#color-1);stroke-width:1"
			id="path28"
			d="m 11.24839,35.36181 c 0,0 11.17766,-11.17766 14.47611,-14.4687 l 2.09396,2.09396 0.0037,-0.0037 c 2.25955,1.05939 5.45206,0.3121 7.8088,-2.04208 L 27.77029,13.0806 c 2.83148,-2.83889 6.89338,-3.37999 9.07258,-1.2082 l 8.92583,8.92583 C 45.9211,21.84345 46,22.91251 46,24 46,36.15026 36.15026,46 24,46 23.24912,46 22.50703,45.96238 21.77551,45.88893 Z"/>
		<path
			style="fill:#ffffff;stroke-width:0"
			id="path32"
			d="m 11.55971,19.46255 c -2.31262,-2.31262 -2.31262,-6.07063 0,-8.38325 l 10.39938,10.39938 -4.19533,4.19533 z M 25.64297,25.16256 35.84222,35.36181 33.74455,37.45948 23.5453,27.26023 13.34605,37.45948 11.24838,35.36181 c 0,0 11.17767,-11.17767 14.47611,-14.4687 -1.05254,-2.26073 -0.31131,-5.45541 2.04578,-7.81251 2.83148,-2.83889 6.89339,-3.37998 9.07259,-1.2082 2.17179,2.17179 1.63069,6.22629 -1.2082,9.06518 -2.35709,2.35709 -5.55177,3.10573 -7.81251,2.04578 z"/>
		<rect
			transform="matrix(1.0472666,0,0,1,-1.465265,0)"
			ry="1.5416318"
			y="34"
			x="16"
			height="12"
			width="30"
			id="rect868"
			style="fill:#404041;stroke-width:1;filter:url(#dropshadow-banner)"/>
		<text
			style="font-weight:bold;font-size:10px;font-family:sans-serif;text-anchor:middle;fill:#ffffff;stroke-width:1.06906152"
			id="text38"
			font-size="10"
			font-weight="bold"
			y="44.05772"
			x="31.005396">
			<tspan
				id="tspan866"
				style="font-style:normal;font-variant:normal;font-weight:bold;font-stretch:normal;font-size:10px;font-family:sans-serif;stroke-width:1">
				YACL
			</tspan>
		</text>
	</g>
</svg>
